# xmcd CD database file
# Copyright (C) 1995-1998 Ti Kan
#
# Track frame offsets:
#	150
#	17785
#	27522
#	41720
#	56117
#	69005
#	79955
#	92515
#	105705
#	115425
#	127470
#	139097
#	151992
#	162302
#	172780
#	181527
#	192730
#	207082
#	220817
#	231422
#	242765
#	254147
#	265872
#	277290
#	289485
#	301330
#	312890
#	323562
#
# Disc length: 4465 seconds
#
# Revision: 2
# Processed by: cddbd v1.4PL0 Copyright (c) Steve Scherf et al.
# Submitted via: CDex 1.30Release
#
DISCID=a8116f1c
DTITLE=Hank Snow - The Singing Ranger Vol. 2  [CD3 of 4)
DYEAR=1990
DGENRE=Country
TTITLE0=Wedding Bells 1956
TTITLE1=Loose Talk 1956
TTITLE2=I Almost Lost My Mind 1956
TTITLE3=Sing Me a Song of The Islands 1956
TTITLE4=Memories Are Made of This 1956
TTITLE5=These Tears Are Not For You 1956
TTITLE6=Singing The Blues 1956
TTITLE7=My Life With You 1956
TTITLE8=Poison Love 1956
TTITLE9=Among My Souvenirs 1956
TTITLE10=Born To Lose 1956
TTITLE11=It's Been So Long Darling 1956
TTITLE12=La Paloma 1956
TTITLE13=Oh, Wonderful World 1956
TTITLE14=Chant of the Wanderer 1990
TTITLE15=I Really Don't Want to Know 1990
TTITLE16=Squid Jiggin' Ground 1957
TTITLE17=The New Blue Velvet Band 1957
TTITLE18=Calypso Sweetheart 1957
TTITLE19=I'm Hurtin' All Over 1990
TTITLE20=My Memory 1990
TTITLE21=The Party of The Second Part 1959
TTITLE22=Marriage and Divorce 1957
TTITLE23=Unfaithful 1990
TTITLE24=Tangled Mind 1957
TTITLE25=My Arms Are a House 1957
TTITLE26=Love's Call From The Mountain 1957
TTITLE27=I Traded Love 1990
EXTD=YEAR: 1990 ID3G:   2
EXTT0=
EXTT1=
EXTT2=
EXTT3=
EXTT4=
EXTT5=
EXTT6=
EXTT7=
EXTT8=
EXTT9=
EXTT10=
EXTT11=
EXTT12=
EXTT13=
EXTT14=
EXTT15=
EXTT16=
EXTT17=
EXTT18=
EXTT19=
EXTT20=
EXTT21=
EXTT22=
EXTT23=
EXTT24=
EXTT25=
EXTT26=
EXTT27=
PLAYORDER=
